<svg width="24" height="24" viewBox="0 0 24 24" fill="none" xmlns="http://www.w3.org/2000/svg">
<g clip-path="url(#clip0_24897_8831)">
<path d="M7.49998 9H4.49998L4.48998 8.999C3.65998 8.989 2.98998 8.319 2.98998 7.499V4.499H2.97998C2.97998 3.669 3.64998 2.999 4.46998 2.989H7.46998L7.45998 2.988C8.27998 2.988 8.94998 3.658 8.95998 4.478V7.478V7.468C8.94998 8.288 8.27998 8.958 7.45998 8.968L7.49998 9Z" stroke="#323232" stroke-width="1.5" stroke-linecap="round" stroke-linejoin="round"/>
<path d="M19.5 9H13.5L13.49 8.999C12.66 8.989 11.99 8.319 11.99 7.499V4.499H11.98C11.98 3.669 12.65 2.999 13.47 2.989H19.47L19.46 2.988C20.28 2.988 20.95 3.658 20.96 4.478V7.478V7.468C20.95 8.288 20.28 8.958 19.46 8.968L19.5 9Z" stroke="#323232" stroke-width="1.5" stroke-linecap="round" stroke-linejoin="round"/>
<path d="M19.5 18H16.5L16.49 17.999C15.66 17.989 14.99 17.319 14.99 16.499V13.499H14.98C14.98 12.669 15.65 11.999 16.47 11.989H19.47L19.46 11.988C20.28 11.988 20.95 12.658 20.96 13.478V16.478V16.468C20.95 17.288 20.28 17.958 19.46 17.968L19.5 18Z" stroke="#323232" stroke-width="1.5" stroke-linecap="round" stroke-linejoin="round"/>
<path d="M9.99994 21H4.99994H4.98994C3.87994 21 2.98994 20.1 2.98994 19C2.97994 18.99 2.97994 18.99 2.98994 18.99V14.41L2.97994 14.4C2.96994 13.29 3.86994 12.4 4.96994 12.4H9.96994C11.0699 12.39 11.9599 13.289 11.9599 14.389C11.9599 14.389 11.9599 14.389 11.9589 14.389V18.959C11.9589 20.059 11.0589 20.949 9.95894 20.949C9.94894 20.949 9.94894 20.939 9.94894 20.939L9.99994 21Z" stroke="#323232" stroke-width="1.5" stroke-linecap="round" stroke-linejoin="round"/>
</g>
<defs>
<clipPath id="clip0_24897_8831">
<rect width="24" height="24" fill="white"/>
</clipPath>
</defs>
</svg>
