<svg width="24" height="24" viewBox="0 0 24 24" fill="none" xmlns="http://www.w3.org/2000/svg">
<path fill-rule="evenodd" clip-rule="evenodd" d="M15.1058 6.25008C15.1201 6.24987 15.1343 6.25006 15.1486 6.25067C16.6915 6.3157 18.1458 6.98963 19.1928 8.1248C20.2365 9.25639 20.7906 10.7543 20.735 12.2924C20.735 12.3256 20.7346 12.3588 20.7341 12.3921C20.7697 12.3907 20.8054 12.39 20.8412 12.39C20.8517 12.39 20.8622 12.3902 20.8727 12.3907C21.6676 12.4243 22.4167 12.7716 22.9559 13.3565C23.4879 13.9336 23.7728 14.6956 23.7505 15.4794C23.779 16.2758 23.5064 17.0542 22.9865 17.6592C22.4597 18.2722 21.7187 18.6609 20.9149 18.7458C20.8887 18.7486 20.8624 18.75 20.836 18.75H3.46504C3.45455 18.75 3.44405 18.7498 3.43357 18.7493C2.55424 18.7124 1.72542 18.3284 1.12878 17.6814C0.538872 17.0417 0.223506 16.1966 0.249581 15.3276C0.222129 14.4577 0.536881 13.6113 1.12694 12.9705C1.72373 12.3223 2.55336 11.9376 3.43362 11.9007C3.44525 11.9002 3.4569 11.9 3.46854 11.9C3.61847 11.9007 3.76751 11.9124 3.91453 11.9347C3.9411 10.8414 4.36392 9.79104 5.10972 8.98237C5.92023 8.10353 7.04608 7.58186 8.24055 7.53166C8.25299 7.53114 8.26544 7.53093 8.27789 7.53102C8.90026 7.53588 9.51389 7.67808 10.075 7.94748C10.334 8.07184 10.5788 8.2219 10.8061 8.39492C11.2139 7.86985 11.7145 7.4202 12.2856 7.06961C13.135 6.54815 14.1092 6.26507 15.1058 6.25008ZM23 15.482L22.2506 15.4527C22.2662 15.0545 22.1232 14.6663 21.853 14.3732C21.5865 14.0841 21.2176 13.9108 20.8253 13.8901C20.6195 13.8926 20.4174 13.9455 20.2366 14.0442C19.9812 14.1837 19.6682 14.1629 19.4336 13.9908C19.1989 13.8188 19.0849 13.5265 19.1412 13.241C19.2037 12.9239 19.2351 12.6014 19.235 12.2781C19.235 12.2684 19.2352 12.2587 19.2356 12.249C19.2799 11.1025 18.868 9.98517 18.0901 9.14177C17.3171 8.30363 16.2453 7.80393 15.1069 7.75029C14.3871 7.76491 13.6841 7.97115 13.0703 8.34794C12.4505 8.72847 11.9445 9.26889 11.6057 9.91245C11.4883 10.1353 11.267 10.2843 11.0164 10.3093C10.7658 10.3343 10.5194 10.2318 10.3604 10.0365C10.1069 9.72511 9.78771 9.4735 9.4257 9.29968C9.06927 9.12854 8.67996 9.03696 8.28477 9.03119C7.49394 9.06934 6.74949 9.41691 6.21238 9.9993C5.67103 10.5863 5.38446 11.364 5.41547 12.1619C5.41584 12.1713 5.41603 12.1808 5.41604 12.1903C5.41625 12.4277 5.44079 12.6645 5.48925 12.8969C5.55164 13.1961 5.42621 13.5033 5.17221 13.6733C4.91821 13.8433 4.58645 13.8421 4.33361 13.6704C4.08102 13.4988 3.78387 13.405 3.4788 13.4002C3.00223 13.4248 2.55396 13.6351 2.23039 13.9865C1.90283 14.3423 1.72984 14.8135 1.74942 15.2966C1.75023 15.3165 1.75024 15.3364 1.74947 15.3562C1.73066 15.8389 1.90399 16.3094 2.23147 16.6645C2.5557 17.0161 3.00484 17.2262 3.48212 17.25H20.7929C21.2026 17.1978 21.5791 16.9955 21.8489 16.6815C22.1265 16.3585 22.2702 15.9417 22.2508 15.5162L23 15.482Z" fill="#222222"/>
</svg>
