<svg xmlns="http://www.w3.org/2000/svg" width="21.498" height="15.49" viewBox="0 0 21.498 15.49">
  <path id="Vector_1_" data-name="Vector (1)" d="M5.99,15.49A5.74,5.74,0,0,1,4.78,4.14,6.75,6.75,0,0,1,16.15,2.38,6.85,6.85,0,0,1,17.72,6,4.752,4.752,0,0,1,17,15.45H6Zm5-14a5.24,5.24,0,0,0-2.69.74A5.3,5.3,0,0,0,6.04,5.05a.76.76,0,0,1-.61.5A4.17,4.17,0,0,0,2.71,7.07a4.23,4.23,0,0,0,.39,5.78A4.12,4.12,0,0,0,6,14H17a3.24,3.24,0,0,0,3.25-3.26,3.2,3.2,0,0,0-.95-2.3A3.24,3.24,0,0,0,17,7.49a.76.76,0,0,1-.75-.75A5.2,5.2,0,0,0,15,3.35a5.26,5.26,0,0,0-3.14-1.78A4.909,4.909,0,0,0,11,1.5Z" transform="translate(-0.255 0)" fill="#666"/>
</svg>
