<svg xmlns="http://www.w3.org/2000/svg" width="59.487" height="58.038" viewBox="0 0 59.487 58.038">
  <path id="icons8-app" d="M38.487,10a.72.72,0,0,0-.312.072L15.1,21.183a.72.72,0,0,0-.389.487l-5.7,24.966a.719.719,0,0,0,.139.608L25.121,67.267a.719.719,0,0,0,.562.271H51.291a.719.719,0,0,0,.562-.271L67.821,47.245a.719.719,0,0,0,.139-.608l-5.7-24.966a.72.72,0,0,0-.389-.487L38.8,10.072A.72.72,0,0,0,38.487,10Zm0,1.517L60.936,22.328,66.48,46.62,50.946,66.1H26.029L10.5,46.62l5.543-24.292Zm.164,6.209a.719.719,0,0,0-.719.719v2.868A18.125,18.125,0,0,0,24.92,27.59l-2.25-1.8a.72.72,0,0,0-.9,1.125l2.248,1.792A18.093,18.093,0,0,0,20.8,42.8l-2.8.638a.72.72,0,0,0,.159,1.422.734.734,0,0,0,.162-.018l2.794-.638a18.24,18.24,0,0,0,9.013,11.3l-1.245,2.585a.719.719,0,0,0,1.3.625l1.245-2.583a18.125,18.125,0,0,0,14.453,0l1.245,2.583a.719.719,0,1,0,1.3-.625L47.174,55.5a18.24,18.24,0,0,0,9.013-11.3l2.794.638a.735.735,0,0,0,.162.018.72.72,0,0,0,.159-1.422l-2.8-.638a18.093,18.093,0,0,0-3.221-14.085l2.246-1.792a.719.719,0,0,0-.9-1.125l-2.25,1.8a18.128,18.128,0,0,0-13.014-6.276V18.445A.719.719,0,0,0,38.652,17.726Zm0,5.008A16.728,16.728,0,1,1,21.925,39.462,16.746,16.746,0,0,1,38.653,22.734Zm0,2.322a14.4,14.4,0,1,0,14.4,14.4A14.421,14.421,0,0,0,38.653,25.056Zm-.719,1.474v8.5a4.475,4.475,0,0,0-2.3,1.107l-6.643-5.3A12.924,12.924,0,0,1,37.934,26.53Zm1.438,0a12.921,12.921,0,0,1,8.938,4.31l-6.643,5.3a4.473,4.473,0,0,0-2.3-1.108ZM28.094,31.96l6.643,5.3a4.464,4.464,0,0,0-.58,2.2c0,.1.008.19.014.285l-8.288,1.892a12.724,12.724,0,0,1,2.211-9.677Zm21.117,0a12.724,12.724,0,0,1,2.211,9.677l-8.288-1.892c.006-.095.014-.189.014-.285a4.46,4.46,0,0,0-.58-2.2ZM38.653,36.4a3.057,3.057,0,1,1-3.058,3.057A3.06,3.06,0,0,1,38.653,36.4Zm-4.165,4.745a4.519,4.519,0,0,0,1.593,1.995l-3.692,7.664A13.015,13.015,0,0,1,26.2,43.041Zm8.329,0L51.1,43.041a13.017,13.017,0,0,1-6.191,7.767l-3.69-7.664A4.52,4.52,0,0,0,42.817,41.149ZM37.375,43.77a4.457,4.457,0,0,0,2.554,0l3.692,7.664a12.922,12.922,0,0,1-9.936,0Z" transform="translate(-8.744 -9.75)" fill="#222" stroke="#222" stroke-width="0.5"/>
</svg>
