<svg width="20" height="20" viewBox="0 0 20 20" fill="none" xmlns="http://www.w3.org/2000/svg">
<path fill-rule="evenodd" clip-rule="evenodd" d="M0.764008 7.00001C0.764008 6.58579 1.09979 6.25001 1.51401 6.25001H18.539C18.9533 6.25001 19.289 6.58579 19.289 7.00001C19.289 7.41422 18.9533 7.75001 18.539 7.75001H1.51401C1.09979 7.75001 0.764008 7.41422 0.764008 7.00001Z" fill="#222222"/>
<path fill-rule="evenodd" clip-rule="evenodd" d="M7.85842 3.941C7.18542 5.45311 6.75 7.59466 6.75 10C6.75 12.4053 7.18542 14.5469 7.85842 16.059C8.19533 16.816 8.57708 17.3822 8.96311 17.7491C9.34525 18.1122 9.69623 18.25 10.0056 18.25C10.4198 18.25 10.7556 18.5858 10.7556 19C10.7556 19.4142 10.4198 19.75 10.0056 19.75C9.20889 19.75 8.5061 19.3841 7.9298 18.8364C7.35737 18.2924 6.87598 17.5406 6.48802 16.6689C5.71127 14.9237 5.25 12.5652 5.25 10C5.25 7.43477 5.71127 5.07631 6.48802 3.33107C6.87598 2.45939 7.35737 1.7076 7.9298 1.1636C8.5061 0.61592 9.20889 0.25 10.0056 0.25C10.4198 0.25 10.7556 0.585786 10.7556 1C10.7556 1.41421 10.4198 1.75 10.0056 1.75C9.69623 1.75 9.34525 1.88776 8.96311 2.25092C8.57708 2.61778 8.19533 3.18401 7.85842 3.941Z" fill="#222222"/>
<path fill-rule="evenodd" clip-rule="evenodd" d="M0.764038 13C0.764038 12.5858 1.09982 12.25 1.51404 12.25H9C9.41421 12.25 9.75 12.5858 9.75 13C9.75 13.4142 9.41421 13.75 9 13.75H1.51404C1.09982 13.75 0.764038 13.4142 0.764038 13Z" fill="#222222"/>
<path fill-rule="evenodd" clip-rule="evenodd" d="M3.10571 3.10571C4.93419 1.27723 7.41414 0.25 10 0.25C10.4142 0.25 10.75 0.585786 10.75 1C10.75 1.41421 10.4142 1.75 10 1.75C7.81196 1.75 5.71354 2.61919 4.16637 4.16637C2.61919 5.71354 1.75 7.81196 1.75 10C1.75 12.188 2.61919 14.2865 4.16637 15.8336C5.71354 17.3808 7.81196 18.25 10 18.25C10.4142 18.25 10.75 18.5858 10.75 19C10.75 19.4142 10.4142 19.75 10 19.75C7.41414 19.75 4.93419 18.7228 3.10571 16.8943C1.27723 15.0658 0.25 12.5859 0.25 10C0.25 7.41414 1.27723 4.93419 3.10571 3.10571Z" fill="#222222"/>
<path fill-rule="evenodd" clip-rule="evenodd" d="M9.99807 0.250002C12.4036 0.243814 14.7271 1.12379 16.525 2.72192C18.3229 4.32004 19.4692 6.52436 19.7451 8.91398C19.7926 9.32546 19.4975 9.69755 19.086 9.74505C18.6745 9.79255 18.3025 9.49749 18.2549 9.08601C18.0214 7.06266 17.0507 5.19621 15.5284 3.84303C14.0061 2.48986 12.0387 1.74476 10.0019 1.75C9.58772 1.75106 9.25107 1.41614 9.25 1.00193C9.24894 0.587716 9.58386 0.251067 9.99807 0.250002Z" fill="#222222"/>
<path fill-rule="evenodd" clip-rule="evenodd" d="M9.25 1C9.25 0.585786 9.58579 0.25 10 0.25C11.488 0.25 12.6226 1.48205 13.3654 2.97941C14.1356 4.53199 14.634 6.63884 14.7491 8.96291C14.7696 9.37662 14.4508 9.7286 14.0371 9.74908C13.6234 9.76956 13.2714 9.45079 13.2509 9.03709C13.1432 6.86171 12.6777 4.96856 12.0217 3.646C11.3382 2.26822 10.5842 1.75 10 1.75C9.58579 1.75 9.25 1.41421 9.25 1Z" fill="#222222"/>
<path d="M15.401 13.7061L15.503 13.7L15.6033 13.7066C15.9644 13.7532 16.2498 14.0404 16.294 14.4018L16.3 14.502C16.2989 14.9435 15.9404 15.3006 15.499 15.3C15.0576 15.2994 14.7 14.9414 14.7 14.5041C14.6988 14.29 14.7836 14.0843 14.9353 13.9332C15.0617 13.8072 15.2258 13.7279 15.401 13.7061Z" fill="#222222"/>
<path fill-rule="evenodd" clip-rule="evenodd" d="M15.5 11.75C14.7707 11.75 14.0712 12.0397 13.5555 12.5555C13.0397 13.0712 12.75 13.7707 12.75 14.5C12.75 14.9142 12.4142 15.25 12 15.25C11.5858 15.25 11.25 14.9142 11.25 14.5C11.25 13.3728 11.6978 12.2918 12.4948 11.4948C13.2918 10.6978 14.3728 10.25 15.5 10.25C16.6272 10.25 17.7082 10.6978 18.5052 11.4948C19.3022 12.2918 19.75 13.3728 19.75 14.5C19.75 14.9142 19.4142 15.25 19 15.25C18.5858 15.25 18.25 14.9142 18.25 14.5C18.25 13.7707 17.9603 13.0712 17.4445 12.5555C16.9288 12.0397 16.2293 11.75 15.5 11.75Z" fill="#222222"/>
<path fill-rule="evenodd" clip-rule="evenodd" d="M12 13.75C12.4142 13.75 12.75 14.0858 12.75 14.5C12.75 15.0738 13.0844 15.766 13.6457 16.4863C14.1851 17.1784 14.8498 17.7901 15.3336 18.1956C15.3816 18.2309 15.4397 18.25 15.4994 18.25C15.5592 18.25 15.6173 18.231 15.6653 18.1957C16.1495 17.7904 16.8145 17.1786 17.3541 16.4865C17.9156 15.7662 18.25 15.0739 18.25 14.5C18.25 14.0858 18.5858 13.75 19 13.75C19.4143 13.75 19.75 14.0858 19.75 14.5C19.75 15.5875 19.1563 16.6143 18.5371 17.4087C17.9005 18.2253 17.1391 18.9191 16.6147 19.3571C16.6085 19.3623 16.6022 19.3674 16.5958 19.3724C16.2826 19.6172 15.8965 19.7501 15.499 19.75C15.1016 19.7499 14.7155 19.6168 14.4025 19.3718C14.3961 19.3668 14.3898 19.3617 14.3836 19.3565C13.8598 18.9186 13.0988 18.2248 12.4625 17.4083C11.8436 16.6141 11.25 15.5874 11.25 14.5C11.25 14.0858 11.5858 13.75 12 13.75Z" fill="#222222"/>
</svg>
