<svg width="24" height="24" viewBox="0 0 24 24" fill="none" xmlns="http://www.w3.org/2000/svg">
<path d="M12.25 2.09326C12.0163 2.09334 11.7828 2.14534 11.5671 2.24957L4.65448 5.58713C4.22448 5.79463 3.91181 6.18765 3.80568 6.65336L2.09761 14.1572C1.99205 14.6219 2.10329 15.1104 2.39975 15.4836L7.18515 21.5003C7.48301 21.875 7.9364 22.0933 8.41468 22.0933H16.0853C16.5636 22.0933 17.017 21.875 17.3148 21.5003L22.1002 15.4845V15.4836C22.3966 15.1107 22.5086 14.6227 22.4032 14.1581V14.1572L20.6943 6.65336V6.65249C20.5882 6.18752 20.2757 5.79504 19.8455 5.58713L12.9337 2.24957L12.9329 2.2487C12.7172 2.14492 12.4837 2.09318 12.25 2.09326ZM12.25 2.98747C12.3504 2.9875 12.4506 3.0098 12.5443 3.05471L19.4569 6.39226C19.6428 6.48212 19.7769 6.65038 19.8228 6.85159L21.5309 14.3554C21.5765 14.5567 21.5287 14.7665 21.4008 14.9274L16.6154 20.9441C16.4867 21.1059 16.292 21.1991 16.0853 21.1991H8.41468C8.20801 21.1991 8.01418 21.1059 7.88549 20.9441L3.1001 14.9274C2.97181 14.7659 2.92354 14.556 2.96911 14.3554L4.67805 6.85246C4.72394 6.65109 4.85786 6.48251 5.04307 6.39314V6.39226L11.9557 3.05471C12.0489 3.00968 12.1495 2.98744 12.25 2.98747ZM12.2465 4.86844C12.1834 4.86858 12.1194 4.88116 12.0579 4.90687C11.812 5.01417 11.6956 5.30018 11.8029 5.54608C11.9057 5.78752 11.9411 6.02857 11.9679 6.27001C11.9769 6.3952 11.982 6.51605 11.9775 6.63677C11.9909 6.75749 11.9281 6.87845 11.8387 6.99917C11.7448 7.11989 11.736 7.24085 11.7225 7.36157C10.4956 7.482 9.39104 8.01969 8.54654 8.82775L8.53868 8.82338C8.43585 8.75632 8.33801 8.68901 8.18153 8.68454C8.03398 8.6756 7.89971 8.64908 7.81476 8.55966C7.72087 8.48813 7.62726 8.40796 7.54231 8.32301C7.36794 8.15311 7.20195 7.96956 7.08123 7.73706C7.02311 7.62529 6.91574 7.53541 6.78608 7.49517C6.52676 7.42364 6.25867 7.57118 6.18266 7.8305C6.10665 8.08535 6.25867 8.35801 6.51799 8.42955C6.76837 8.50556 6.97861 8.63075 7.18428 8.76488C7.28264 8.83194 7.37681 8.90358 7.4707 8.98406C7.57354 9.05113 7.62694 9.17632 7.66718 9.31939C7.69669 9.4627 7.77892 9.54561 7.8593 9.6259C7.2473 10.4974 6.88475 11.5566 6.88475 12.6997C6.88475 12.8888 6.89525 13.0754 6.91444 13.2595C6.81414 13.2946 6.71487 13.3327 6.62976 13.4333C6.5314 13.545 6.42389 13.6339 6.30317 13.6428C6.18692 13.6741 6.06673 13.6967 5.94601 13.7101C5.70458 13.7414 5.4586 13.7594 5.20375 13.7057C5.07856 13.6834 4.94003 13.7099 4.82825 13.7904C4.60917 13.9424 4.5601 14.2464 4.71211 14.4654C4.8686 14.6845 5.17242 14.7389 5.3915 14.5825C5.60611 14.4304 5.83403 14.345 6.06652 14.269C6.18277 14.2332 6.29947 14.2022 6.42018 14.1799C6.53643 14.1396 6.66581 14.175 6.80441 14.2332C6.91958 14.2926 7.02155 14.2879 7.12228 14.2777C7.51583 15.5536 8.37636 16.6226 9.50013 17.2974C9.46173 17.4048 9.42571 17.5168 9.45996 17.658C9.48679 17.8056 9.49112 17.9447 9.42852 18.0475C9.37934 18.1593 9.32597 18.2659 9.26785 18.3732C9.14266 18.5789 9.00874 18.7847 8.81201 18.9635C8.71812 19.0485 8.65493 19.169 8.65046 19.3076C8.64152 19.5759 8.85201 19.7999 9.12027 19.8088C9.38853 19.8178 9.61694 19.6073 9.62588 19.339C9.63035 19.0752 9.70171 18.8432 9.78219 18.6107C9.82243 18.499 9.87175 18.3871 9.9254 18.2798C9.96564 18.1635 10.0726 18.078 10.2022 18.0065C10.3314 17.9398 10.3895 17.8455 10.4476 17.7462C11.012 17.9485 11.617 18.065 12.25 18.065C12.8938 18.065 13.5087 17.9447 14.0812 17.7358C14.1417 17.8391 14.204 17.9373 14.3336 18.0065C14.4632 18.0825 14.5701 18.1635 14.6104 18.2798C14.664 18.3916 14.709 18.5033 14.7492 18.6151C14.8297 18.8476 14.8966 19.0796 14.9055 19.3434C14.9055 19.4731 14.959 19.5988 15.0618 19.6927C15.263 19.8715 15.5675 19.858 15.7508 19.6613C15.9297 19.4601 15.9161 19.1556 15.7194 18.9723C15.5227 18.7979 15.3887 18.5877 15.2679 18.3776C15.2098 18.2748 15.1564 18.1635 15.1073 18.0562C15.0447 17.9489 15.0489 17.8143 15.0802 17.6668C15.116 17.5148 15.0758 17.4032 15.04 17.2869L15.0365 17.2756C16.1513 16.594 17.0006 15.5218 17.3856 14.2463L17.4004 14.2471C17.5256 14.2561 17.6461 14.269 17.7803 14.193C17.9144 14.1304 18.0491 14.0943 18.1654 14.1301C18.2816 14.148 18.4019 14.1748 18.5182 14.2061C18.7507 14.2732 18.9837 14.3537 19.2028 14.5012C19.3101 14.5683 19.4442 14.5998 19.5783 14.5685C19.8421 14.5104 20.0075 14.2515 19.9494 13.9921C19.8913 13.7283 19.6316 13.5629 19.3678 13.621C19.1085 13.6791 18.8671 13.6696 18.6212 13.6472C18.5005 13.6338 18.3839 13.6164 18.2632 13.5896C18.1425 13.5806 18.0359 13.5004 17.9331 13.3931C17.8303 13.2724 17.714 13.2411 17.5978 13.2053L17.5899 13.2027C17.6054 13.0369 17.6152 12.8696 17.6152 12.6997C17.6152 11.5912 17.2768 10.5598 16.6983 9.70362C16.7831 9.61437 16.8688 9.52964 16.9 9.3779C16.9403 9.23482 16.9937 9.10963 17.0965 9.04257C17.1859 8.96209 17.2846 8.89055 17.3829 8.81902C17.5841 8.68489 17.7945 8.55523 18.0449 8.48369C18.1701 8.44792 18.2766 8.36262 18.3391 8.23743C18.4643 8.00047 18.371 7.70584 18.1296 7.58512C17.8926 7.45993 17.5971 7.55326 17.4764 7.7947C17.3557 8.02719 17.1904 8.21075 17.0205 8.38065C16.9311 8.4656 16.842 8.54653 16.7481 8.62254C16.6631 8.71196 16.5289 8.73847 16.3813 8.74741C16.2248 8.75188 16.1261 8.82356 16.0233 8.89062C15.1707 8.04599 14.0373 7.48523 12.7774 7.36157C12.764 7.24085 12.7552 7.11989 12.6613 6.99917C12.5719 6.87845 12.509 6.75749 12.5224 6.63677C12.518 6.51605 12.5231 6.3952 12.532 6.27001C12.5589 6.02857 12.5943 5.78752 12.6971 5.54608C12.7463 5.42984 12.7507 5.29152 12.6971 5.16186C12.6166 4.97743 12.4357 4.86802 12.2465 4.86844ZM11.6055 8.28022L11.5837 8.45225C11.5211 8.93513 11.4765 9.42247 11.4318 9.90534C11.4049 10.1602 11.3824 10.4198 11.3645 10.6747C11.1454 10.5182 10.9264 10.3524 10.6939 10.2049C10.2915 9.93213 9.88886 9.65905 9.47306 9.39973L9.33247 9.3124C9.96131 8.77056 10.7428 8.40443 11.6055 8.28022ZM12.8944 8.28022C13.7925 8.40952 14.6012 8.80278 15.2426 9.38139L15.0933 9.4757C14.6819 9.73949 14.2845 10.0125 13.8821 10.2852C13.7211 10.3925 13.5643 10.5044 13.4123 10.6162C13.2916 10.7011 13.1261 10.6249 13.1171 10.4773C13.1037 10.2851 13.0861 10.0976 13.0682 9.90534C13.0235 9.42247 12.9789 8.93513 12.9163 8.45225L12.8944 8.28022ZM8.48629 10.2887L8.62863 10.4371C8.96843 10.7904 9.31294 11.1303 9.66168 11.4746C9.80922 11.6221 9.95677 11.7612 10.1088 11.8998C10.2161 11.9982 10.1758 12.1722 10.0372 12.2125C9.8181 12.2795 9.5987 12.3418 9.37962 12.4133C8.91911 12.5653 8.45429 12.709 7.99378 12.8744L7.79118 12.9451C7.78676 12.8633 7.77896 12.7827 7.77896 12.6997C7.77896 11.8099 8.04056 10.9843 8.48629 10.2887ZM16.067 10.3769C16.4791 11.054 16.721 11.8468 16.721 12.6997C16.721 12.7744 16.7133 12.8469 16.7097 12.9207L16.5507 12.87C16.0857 12.718 15.6213 12.5876 15.1518 12.4535C14.8478 12.3641 14.5433 12.2841 14.2392 12.2081C14.4673 11.989 14.7048 11.7741 14.9239 11.5505C15.2681 11.2063 15.612 10.8621 15.9473 10.5044L16.067 10.3769ZM11.9732 11.8055H12.5181C12.603 11.8055 12.6838 11.846 12.7285 11.9086L13.077 12.3469C13.1261 12.4051 13.1445 12.4892 13.1311 12.5653L13.0053 13.1067C12.9919 13.1916 12.9337 13.2585 12.8621 13.2988L12.3618 13.5311C12.2902 13.5713 12.201 13.5713 12.1295 13.5311L11.6282 13.2988C11.5567 13.2585 11.494 13.1916 11.485 13.1067L11.3601 12.5653C11.3467 12.4892 11.3651 12.4051 11.4143 12.3469L11.7627 11.9086C11.8074 11.846 11.8882 11.8055 11.9732 11.8055ZM10.3585 13.938C10.4971 13.9156 10.6095 14.0546 10.5559 14.1843C10.4709 14.4078 10.39 14.627 10.314 14.8505C10.1486 15.3111 9.98747 15.767 9.83546 16.232L9.77433 16.4241C8.97858 15.895 8.3674 15.1164 8.04181 14.2L8.27933 14.1799C8.76667 14.1352 9.24507 14.0765 9.73241 14.0183C9.94255 13.996 10.1484 13.9648 10.3585 13.938ZM14.2218 14.0009C14.4319 14.0232 14.6378 14.0459 14.8479 14.0637C15.3352 14.1085 15.818 14.153 16.3054 14.1843L16.4608 14.193C16.1411 15.0978 15.5433 15.869 14.7641 16.3988L14.7134 16.2364C14.5659 15.7714 14.4053 15.311 14.2489 14.8549C14.1773 14.6492 14.1057 14.4483 14.0297 14.2471C13.9805 14.1175 14.0877 13.983 14.2218 14.0009ZM12.2832 14.8829C12.3469 14.8829 12.4107 14.915 12.4465 14.9798C12.5448 15.1676 12.6483 15.351 12.7556 15.5343C12.997 15.9546 13.2377 16.3796 13.497 16.7909L13.6026 16.9621C13.1761 17.0967 12.7219 17.1708 12.25 17.1708C11.7923 17.1708 11.3511 17.1013 10.9358 16.9743L11.0475 16.7953C11.3068 16.3839 11.5526 15.9633 11.7985 15.543C11.9103 15.3597 12.0179 15.172 12.1207 14.9798C12.1565 14.915 12.2195 14.8829 12.2832 14.8829Z" fill="#222222" stroke="#222222" stroke-width="0.5"/>
</svg>
