<?xml version="1.0" standalone="no"?>
<!DOCTYPE svg PUBLIC "-//W3C//DTD SVG 20010904//EN"
 "http://www.w3.org/TR/2001/REC-SVG-20010904/DTD/svg10.dtd">
<svg version="1.0" xmlns="http://www.w3.org/2000/svg"
 width="512.000000pt" height="512.000000pt" viewBox="0 0 512.000000 512.000000"
 preserveAspectRatio="xMidYMid meet">

<g transform="translate(0.000000,512.000000) scale(0.100000,-0.100000)"
fill="#000000" stroke="none">
<path d="M2445 5106 c-86 -21 -134 -50 -525 -322 l-379 -263 -260 -3 -261 -3
-27 -28 -28 -27 -3 -164 -3 -164 -421 -288 c-269 -185 -435 -305 -463 -336
-81 -91 -76 31 -73 -1728 l3 -1555 21 -46 c28 -60 93 -125 153 -153 l46 -21
2335 0 2335 0 46 21 c60 28 125 93 153 153 l21 46 3 1555 c3 1759 8 1637 -73
1728 -28 31 -194 151 -463 336 l-421 288 -3 165 -3 165 -33 29 -32 29 -256 0
-255 0 -373 260 c-205 142 -395 270 -423 284 -102 51 -233 68 -338 42z m210
-204 c30 -10 156 -91 309 -197 l258 -180 -331 -3 c-182 -1 -480 -1 -662 0
l-331 3 258 180 c265 184 322 214 404 214 25 0 68 -7 95 -17z m1305 -1436 l0
-854 -612 -548 c-673 -601 -668 -597 -788 -597 -120 0 -115 -4 -787 597 l-613
548 0 854 0 854 1400 0 1400 0 0 -854z m-3002 -399 l-3 -273 -340 304 c-187
167 -340 308 -340 313 0 5 153 114 340 243 l340 233 3 -273 c1 -151 1 -397 0
-547z m3625 533 c147 -101 266 -187 265 -191 -2 -3 -73 -69 -158 -145 -85 -77
-239 -215 -342 -307 l-188 -168 0 551 0 552 78 -54 c42 -30 197 -137 345 -238z
m-3320 -1348 c328 -294 597 -537 597 -541 0 -7 -1636 -1383 -1652 -1389 -4 -2
-8 645 -8 1438 l0 1441 233 -208 c128 -114 501 -448 830 -741z m3653 -1929
c-7 -7 -1651 1376 -1651 1388 0 6 371 343 825 748 l825 737 3 -1435 c1 -789 0
-1436 -2 -1438z m-2771 1141 c66 -58 139 -117 163 -131 147 -87 357 -87 504 0
24 14 97 73 163 131 66 58 126 104 133 101 7 -2 376 -309 820 -682 l808 -678
-1088 -3 c-598 -1 -1578 -1 -2176 0 l-1088 3 813 683 c448 375 817 682 821
682 4 0 61 -48 127 -106z"/>
<path d="M2397 3905 c-276 -53 -519 -237 -642 -490 -70 -142 -88 -224 -88
-395 0 -171 18 -253 88 -395 141 -290 448 -493 752 -498 88 -2 94 -1 120 26
65 65 15 167 -83 167 -81 0 -197 30 -294 77 -81 39 -108 58 -182 133 -72 72
-94 103 -131 181 -102 209 -102 409 0 618 37 78 59 109 131 181 74 75 101 94
182 133 211 102 409 102 620 0 81 -39 108 -58 182 -133 72 -72 94 -103 132
-181 62 -129 78 -218 74 -403 -3 -144 -3 -146 -30 -173 -39 -38 -97 -38 -136
0 -27 27 -27 29 -33 200 -4 117 -11 185 -22 213 -67 179 -190 294 -364 339
-256 67 -528 -103 -598 -372 -69 -266 122 -553 403 -605 123 -23 289 20 391
101 l37 29 42 -44 c59 -63 119 -88 212 -88 91 -1 148 22 210 84 79 79 85 105
84 345 0 184 -3 220 -23 290 -85 312 -338 565 -646 645 -106 28 -283 35 -388
15z m285 -613 c59 -26 124 -91 151 -151 30 -64 30 -178 0 -242 -27 -60 -92
-125 -152 -152 -64 -30 -178 -30 -242 0 -129 59 -202 206 -169 342 43 180 242
278 412 203z"/>
<path d="M1724 590 c-39 -15 -66 -61 -60 -99 19 -120 191 -111 191 10 0 34 -6
46 -33 70 -33 29 -60 35 -98 19z"/>
<path d="M2124 590 c-12 -4 -31 -21 -44 -37 -28 -35 -22 -86 15 -122 l25 -26
640 0 640 0 27 27 c41 41 39 100 -5 139 l-32 29 -623 -1 c-342 0 -632 -4 -643
-9z"/>
</g>
</svg>
