<svg width="24" height="24" viewBox="0 0 24 24" fill="none" xmlns="http://www.w3.org/2000/svg">
<path fill-rule="evenodd" clip-rule="evenodd" d="M6.25 12C6.25 11.0335 5.4665 10.25 4.5 10.25C3.5335 10.25 2.75 11.0335 2.75 12C2.75 12.9665 3.5335 13.75 4.5 13.75C5.4665 13.75 6.25 12.9665 6.25 12ZM4.5 8.75C6.29493 8.75 7.75 10.2051 7.75 12C7.75 13.7949 6.29493 15.25 4.5 15.25C2.70507 15.25 1.25 13.7949 1.25 12C1.25 10.2051 2.70507 8.75 4.5 8.75Z" fill="#3D4D59"/>
<path fill-rule="evenodd" clip-rule="evenodd" d="M15.75 6.5C15.75 5.94772 15.3023 5.5 14.75 5.5C14.1977 5.5 13.75 5.94772 13.75 6.5C13.75 7.05228 14.1977 7.5 14.75 7.5C15.3023 7.5 15.75 7.05228 15.75 6.5ZM14.75 4C16.1307 4 17.25 5.11929 17.25 6.5C17.25 7.88071 16.1307 9 14.75 9C13.3693 9 12.25 7.88071 12.25 6.5C12.25 5.11929 13.3693 4 14.75 4Z" fill="#3D4D59"/>
<path fill-rule="evenodd" clip-rule="evenodd" d="M21.25 12C21.25 11.4477 20.8023 11 20.25 11C19.6977 11 19.25 11.4477 19.25 12C19.25 12.5523 19.6977 13 20.25 13C20.8023 13 21.25 12.5523 21.25 12ZM20.25 9.5C21.6307 9.5 22.75 10.6193 22.75 12C22.75 13.3807 21.6307 14.5 20.25 14.5C18.8693 14.5 17.75 13.3807 17.75 12C17.75 10.6193 18.8693 9.5 20.25 9.5Z" fill="#3D4D59"/>
<path fill-rule="evenodd" clip-rule="evenodd" d="M19.25 12C19.25 12.4142 18.9142 12.75 18.5 12.75H7C6.58579 12.75 6.25 12.4142 6.25 12C6.25 11.5858 6.58579 11.25 7 11.25L18.5 11.25C18.9142 11.25 19.25 11.5858 19.25 12Z" fill="#3D4D59"/>
<path fill-rule="evenodd" clip-rule="evenodd" d="M13.75 6.5C13.75 6.91421 13.4142 7.25 13 7.25H11.6C11.0116 7.25 10.5077 7.65532 10.3829 8.22932L10.3823 8.23211L9.51227 12.1621C9.42274 12.5665 9.02232 12.8218 8.61789 12.7323C8.21347 12.6427 7.9582 12.2423 8.04773 11.8379L8.91712 7.91068C8.91722 7.91019 8.91733 7.9097 8.91743 7.90922C9.19319 6.64399 10.3089 5.75 11.6 5.75L13 5.75C13.4142 5.75 13.75 6.08579 13.75 6.5Z" fill="#3D4D59"/>
<path fill-rule="evenodd" clip-rule="evenodd" d="M15.75 17.5C15.75 16.9477 15.3023 16.5 14.75 16.5C14.1977 16.5 13.75 16.9477 13.75 17.5C13.75 18.0523 14.1977 18.5 14.75 18.5C15.3023 18.5 15.75 18.0523 15.75 17.5ZM14.75 15C16.1307 15 17.25 16.1193 17.25 17.5C17.25 18.8807 16.1307 20 14.75 20C13.3693 20 12.25 18.8807 12.25 17.5C12.25 16.1193 13.3693 15 14.75 15Z" fill="#3D4D59"/>
<path fill-rule="evenodd" clip-rule="evenodd" d="M13.75 17.5C13.75 17.9142 13.4142 18.25 13 18.25H11.6C10.3089 18.25 9.19318 17.356 8.91743 16.0908C8.91733 16.0903 8.91722 16.0898 8.91712 16.0893L8.04773 12.1621C7.9582 11.7577 8.21347 11.3573 8.61789 11.2677C9.02232 11.1782 9.42274 11.4335 9.51227 11.8379L10.3829 15.7707C10.5077 16.3447 11.0116 16.75 11.6 16.75H13C13.4142 16.75 13.75 17.0858 13.75 17.5Z" fill="#3D4D59"/>
</svg>
